# xmcd CD database file
#
# Track frame offsets:
#	183
#	14483
#	25858
#	47533
#	75433
#	89008
#	101108
#	116458
#	139133
#	158383
#	168683
#
# Disc length: 2417 seconds
#
# Revision: 0
# Processed by: cddbd v1.5.2PL0 Copyright (c) Steve Scherf et al.
# Submitted via: CDex 1.51
#
DISCID=82096f0b
DTITLE=Barcelona Hot Seven amb Carme Cuesta - La Col·lecció del Taller - 1
DYEAR=1991
DGENRE=Jazz
TTITLE0=After You've Gone
TTITLE1=A Tisket A Tasket
TTITLE2=Tiger Rag
TTITLE3=Fine and Mellow
TTITLE4=Honeysuckle Rose
TTITLE5=Rocki'n Rythm
TTITLE6=I've Got You Under My Skin
TTITLE7=Sophisticated Lady
TTITLE8=Big Shoe
TTITLE9=Sweet Georgia Brown
TTITLE10=Climbing Higher Mountains
EXTD=YEAR: 1991
EXTT0=
EXTT1=
EXTT2=
EXTT3=
EXTT4=
EXTT5=
EXTT6=
EXTT7=
EXTT8=
EXTT9=
EXTT10=
PLAYORDER=
